<svg width="233" height="175" viewBox="0 0 233 175" fill="none" xmlns="http://www.w3.org/2000/svg">
<path d="M188.819 68.8721H220.232C221.908 68.8721 223.895 69.3538 225.555 70.832L225.883 71.1406L226.192 71.4688C227.67 73.1288 228.152 75.1156 228.152 76.792V162.552C228.152 164.34 227.604 166.481 225.883 168.202C224.162 169.923 222.02 170.472 220.232 170.472H11.7223C10.2384 170.472 7.5527 170.115 5.62564 167.743C3.72608 165.405 3.89493 162.737 4.16079 161.318L4.17349 161.25L4.18814 161.182L22.3639 75.293L22.3756 75.2402L22.3883 75.1865C22.7506 73.6169 23.602 71.8398 25.3258 70.5215C27.0176 69.2278 28.9032 68.8721 30.4108 68.8721H44.1061L92.2419 20.8906L101.571 30.1895L125.84 6L188.819 68.8721Z" fill="white"/>
<path d="M190.475 64.8721H220.232L220.232 68.8721H188.819L125.84 6L101.571 30.1895L92.2419 20.8906L44.1061 68.8721H30.4108L30.124 68.876C28.6684 68.9198 26.9119 69.3087 25.3258 70.5215L25.0127 70.7734C23.4973 72.0607 22.7279 73.715 22.3883 75.1865L22.3756 75.2402L22.3639 75.293L4.18814 161.182L4.17349 161.25L4.16079 161.318C3.89493 162.737 3.72608 165.405 5.62564 167.743C7.4323 169.967 9.90582 170.419 11.4306 170.467L11.7223 170.472H220.232L220.571 170.465C222.172 170.403 224.006 169.891 225.556 168.512L225.883 168.202C227.497 166.589 228.079 164.605 228.145 162.891L228.152 162.552V76.792C228.152 75.2204 227.729 73.3755 226.458 71.7832L226.192 71.4688L225.883 71.1406L225.555 70.832C223.999 69.4462 222.155 68.9363 220.55 68.8779L220.232 68.8721L220.232 64.8721C222.565 64.8721 225.469 65.5229 227.975 67.6357L228.216 67.8447L228.256 67.8809L228.296 67.918L228.624 68.2266L228.713 68.3105L228.797 68.4004L229.105 68.7285L229.144 68.7676L229.18 68.8086C231.459 71.3681 232.152 74.3841 232.152 76.792V162.552C232.152 165.041 231.409 168.179 228.955 170.78L228.712 171.03C226.23 173.512 223.208 174.365 220.722 174.462L220.232 174.472H11.7216C9.73082 174.472 5.55917 174.004 2.52144 170.266C-0.468978 166.585 -0.124026 162.467 0.229452 160.581L0.241171 160.52L0.250936 160.466L0.262655 160.412L0.27535 160.354L18.4502 74.4648L18.455 74.4453L18.4589 74.4248L18.4707 74.3721L18.4765 74.3467L18.4834 74.3203L18.4961 74.2666C19.0157 72.0316 20.2676 69.3535 22.8955 67.3438C25.4776 65.3694 28.3032 64.8722 30.4101 64.8721H42.4531L92.2421 15.2432L101.57 24.541L125.842 0.350586L190.475 64.8721Z" fill="black"/>
<path d="M92.2317 29.8911L54 68H179L125.829 15L101.561 39.1904L92.2317 29.8911Z" fill="#006FFF"/>
<path d="M199.998 165C199.401 165 198.931 164.829 198.59 164.488C198.249 164.147 198.078 163.677 198.078 163.08V77.32C198.078 76.7227 198.249 76.2533 198.59 75.912C198.931 75.5707 199.401 75.4 199.998 75.4H220.222C220.819 75.4 221.289 75.5707 221.63 75.912C221.971 76.2533 222.142 76.7227 222.142 77.32V163.08C222.142 163.677 221.971 164.147 221.63 164.488C221.289 164.829 220.819 165 220.222 165H199.998Z" fill="black"/>
<path d="M166.917 75.4C172.037 75.4 176.56 76.6373 180.485 79.112C184.496 81.5013 187.61 84.872 189.829 89.224C192.048 93.576 193.157 98.568 193.157 104.2C193.157 109.661 192.09 114.483 189.957 118.664C187.909 122.845 185.008 126.088 181.253 128.392C177.498 130.611 173.146 131.72 168.197 131.72H161.029C160.517 131.72 160.261 131.976 160.261 132.488V163.08C160.261 163.677 160.09 164.147 159.749 164.488C159.408 164.829 158.938 165 158.341 165H138.117C137.52 165 137.05 164.829 136.709 164.488C136.368 164.147 136.197 163.677 136.197 163.08V77.32C136.197 76.7227 136.368 76.2533 136.709 75.912C137.05 75.5707 137.52 75.4 138.117 75.4H166.917ZM162.693 113.16C164.656 113.16 166.192 112.477 167.301 111.112C168.496 109.661 169.093 107.528 169.093 104.712C169.093 101.896 168.496 99.7627 167.301 98.312C166.192 96.776 164.656 96.008 162.693 96.008H161.029C160.517 96.008 160.261 96.264 160.261 96.776V112.392C160.261 112.904 160.517 113.16 161.029 113.16H162.693Z" fill="black"/>
<path d="M81.248 165C80.6506 165 80.1813 164.829 79.84 164.488C79.4986 164.147 79.328 163.677 79.328 163.08V77.32C79.328 76.7227 79.4986 76.2533 79.84 75.912C80.1813 75.5707 80.6506 75.4 81.248 75.4H101.472C102.069 75.4 102.539 75.5707 102.88 75.912C103.221 76.2533 103.392 76.7227 103.392 77.32V143.624C103.392 144.136 103.648 144.392 104.16 144.392H129.12C129.717 144.392 130.187 144.563 130.528 144.904C130.869 145.245 131.04 145.715 131.04 146.312V163.08C131.04 163.677 130.869 164.147 130.528 164.488C130.187 164.829 129.717 165 129.12 165H81.248Z" fill="black"/>
<path d="M51.648 165C50.368 165 49.6853 164.403 49.6 163.208L48.192 153.608C48.192 153.437 48.1066 153.267 47.936 153.096C47.7653 152.925 47.552 152.84 47.296 152.84H36.032C35.776 152.84 35.5626 152.925 35.392 153.096C35.2213 153.267 35.136 153.437 35.136 153.608L33.856 163.208C33.7706 164.403 33.088 165 31.808 165H11.712C10.3466 165 9.79196 164.317 10.048 162.952L28.224 77.064C28.48 75.9547 29.2053 75.4 30.4 75.4H53.696C54.8906 75.4 55.616 75.9547 55.872 77.064L74.048 162.952V163.464C74.048 164.488 73.4506 165 72.256 165H51.648ZM37.952 133.64C37.952 134.152 38.1653 134.408 38.592 134.408H44.608C45.2053 134.408 45.4186 134.152 45.248 133.64L41.792 110.6C41.7066 110.259 41.5786 110.088 41.408 110.088C41.2373 110.088 41.1093 110.259 41.024 110.6L37.952 133.64Z" fill="black"/>
</svg>
