<svg viewBox="0 0 2564 258" fill="currentColor" preserveAspectRatio="none" xmlns="http://www.w3.org/2000/svg">
  <path fill-rule="evenodd" clip-rule="evenodd"
    d="M1790.38 0.0714261C1796.8 -0.0229218 1808.88 -0.0230554 1815.65 0.0684964C1820.58 0.135088 1823.82 0.531446 1826.25 1.089C1828.69 1.64773 1830.28 2.36428 1831.83 2.99916C1836.4 4.86647 1839.92 6.94901 1842.8 8.38979C1844.13 9.05213 1845.53 9.4928 1847.22 9.98451C1848.91 10.4726 1850.87 11.006 1853.21 11.8507C1859.99 14.2944 1862.91 14.9681 1867.3 15.88C1870.12 16.4668 1872.55 16.6898 1874.49 16.9367C1875.44 17.0576 1876.3 17.1891 1877 17.3859C1877.66 17.5728 1878.39 17.8748 1878.83 18.4904C1880.49 20.8275 1883.05 22.4195 1887.87 24.8263C1891.2 26.4944 1894.13 27.956 1897.98 29.6056C1899.98 30.4655 1901.82 31.4564 1903.51 32.4064C1905.22 33.366 1906.74 34.2641 1908.19 34.9894C1910.07 35.9291 1911.9 37.2776 1913.68 38.6163C1915.49 39.975 1917.26 41.3321 1919.14 42.4025C1919.76 42.7579 1921.13 43.129 1923.13 43.4494C1925.08 43.7614 1927.49 44.0064 1930.09 44.1749C1935.3 44.5122 1941.2 44.5411 1945.54 44.2238C1946.55 44.1496 1947.69 43.9122 1949.14 43.6984C1950.55 43.4928 1952.14 43.3326 1953.82 43.4796C1954.92 43.5764 1956.27 43.863 1957.73 44.2121C1959.25 44.577 1960.77 44.98 1962.52 45.3937C1965.94 46.2014 1969.6 46.8901 1972.9 46.714C1974.78 46.6134 1976.51 47.2644 1978.13 48.2111C1979.74 49.1494 1981.35 50.443 1982.98 51.713C1985.06 53.3255 1986.93 54.3075 1988.88 55.2374C1990.82 56.1643 1992.9 57.0643 1995.25 58.4787C2001.53 62.2437 2004.67 62.2281 2008.95 62.9777C2011.95 63.5017 2014.45 64.9907 2016.73 66.6271C2019.07 68.3123 2021.06 70.0476 2023.34 71.4122C2024.41 72.0519 2025.97 72.641 2027.86 73.2052C2029.74 73.7655 2031.87 74.2815 2034.04 74.797C2038.32 75.8116 2042.88 76.8433 2045.63 78.214C2048.79 79.797 2052.48 81.1016 2058.34 82.5714C2060.83 83.1951 2066.57 83.6545 2075.83 84.0216C2080.14 84.193 2083.98 84.661 2087.29 85.0226C2090.64 85.3876 2093.4 85.6363 2095.67 85.4191C2102.59 84.7596 2104.71 82.3797 2107.98 81.0548C2109.56 80.4125 2111.92 80.1043 2114.81 79.8351C2117.77 79.5595 2121.34 79.3221 2125.59 78.8624C2131.18 78.2588 2134.05 78.1224 2138.76 76.9494C2142.64 75.9825 2145.35 75.4915 2147.46 75.1388C2149.58 74.783 2151 74.5804 2152.42 74.1837C2155.6 73.2881 2161.46 72.5743 2169.04 72.1144C2176.17 71.6821 2180.6 71.3393 2183.66 70.8351C2186.68 70.337 2188.3 69.6918 2189.82 68.6828C2191.24 67.7378 2192.86 67.2421 2194.43 66.8888C2195.21 66.712 2196.01 66.566 2196.77 66.422C2197.55 66.2764 2198.29 66.1323 2198.99 65.9552C2202.05 65.1902 2205.9 65.0027 2213.81 64.9972C2218.41 64.9944 2221.42 68.1087 2223.46 70.5138C2224.36 71.5666 2225.61 72.2782 2227.11 72.923C2227.86 73.2456 2228.63 73.5359 2229.43 73.8527C2230.23 74.1646 2231.04 74.498 2231.83 74.8888C2233.39 75.6733 2235.47 76.1188 2237.77 76.4318C2238.9 76.587 2240.07 76.7072 2241.23 76.8244C2242.38 76.9408 2243.54 77.0551 2244.62 77.1974C2245.81 77.3538 2246.72 77.8961 2247.42 78.5802C2248.21 79.3722 2248.58 80.6191 2248.81 81.8234C2249.05 83.0641 2249.19 84.5581 2249.37 85.9904C2249.53 87.3009 2250.53 88.2876 2252.14 89.0519C2253.72 89.8087 2255.67 90.2258 2257.23 90.504C2259.35 90.8815 2261.16 91.6144 2263.07 92.2902C2265 92.9722 2267.15 93.6441 2270.09 94.0031C2276.43 94.7763 2280.74 97.8702 2283.92 99.4542C2285.72 100.353 2287.28 101.572 2288.71 102.627C2290.18 103.708 2291.52 104.627 2293.02 105.132C2295.86 106.087 2298.14 107.326 2300.07 108.474C2302.04 109.648 2303.52 110.644 2304.93 111.259C2306.39 111.9 2307.9 112.703 2309.39 113.517C2310.9 114.338 2312.38 115.167 2313.84 115.897C2317.53 117.741 2322.58 119.894 2325.75 120.427C2330.18 121.17 2336.1 122.086 2339.24 122.646C2341.36 123.023 2343.33 123.745 2345.13 124.414C2346.96 125.096 2348.58 125.708 2350.13 125.969C2351.98 126.28 2353.82 127.48 2355.59 128.732C2357.43 130.033 2359.28 131.454 2361.33 132.53C2363.12 133.473 2364.88 134.462 2366.61 135.31C2368.35 136.153 2369.95 136.799 2371.38 137.054C2373.9 137.501 2376.23 138.316 2378.54 139.233C2380.88 140.165 2383.1 141.164 2385.59 142.082C2387.53 142.8 2389.26 143.158 2391.06 143.452C2392.84 143.743 2394.75 143.98 2396.9 144.447C2401.45 145.433 2405.21 145.754 2409.03 145.942C2412.84 146.128 2416.77 146.184 2421.5 146.647C2427.08 147.193 2437.62 146.831 2443.51 146.738C2447.49 146.676 2450.18 146.336 2452.25 145.98C2454.24 145.635 2455.86 145.224 2457.38 145.08C2459.6 144.87 2462.2 144.662 2464.6 144.473C2467 144.283 2469.21 144.111 2470.68 143.972C2472.28 143.821 2474.26 143.155 2476.85 142.357C2479.38 141.575 2482.36 140.712 2485.77 140.282C2496.07 138.984 2503.82 140.545 2505.63 141.152C2506.45 141.423 2507.73 141.561 2510.08 141.69C2512.36 141.815 2515.6 141.933 2520.09 142.21C2523.28 142.406 2527.42 142.454 2531.54 142.497C2535.14 142.535 2538.72 142.569 2541.59 142.701L2542.78 142.764L2542.86 142.77L2542.94 142.787C2552.6 144.993 2555.6 145.746 2558.59 146.674C2558.81 146.729 2559.37 146.829 2559.89 146.992C2560.48 147.182 2561.2 147.495 2562.18 148.079C2562.36 148.183 2562.49 148.331 2562.57 148.5H2563.5V257.5H0.5V81.5001H1.00195C0.987773 81.0998 1.21534 80.7136 1.60547 80.546C3.27879 79.8285 5.88079 79.1156 7.68164 78.8761C8.47505 78.7708 9.18278 79.0789 9.70312 79.4464C10.5949 80.0765 11.1275 81.0292 11.4639 82.006C11.8014 82.9866 11.9754 84.0906 12.0859 85.1408C12.1947 86.1749 12.2509 87.2735 12.3213 88.1388C12.397 89.0687 12.4896 89.7301 12.6357 90.1261C13.1215 91.4416 13.2293 92.5227 13.1768 93.4064C13.1347 94.1132 12.9805 94.7142 12.8926 95.0695C13.0975 95.1588 13.4506 95.2487 13.9766 95.3165C14.549 95.3904 15.1991 95.4291 15.875 95.4718C16.5266 95.513 17.2187 95.5588 17.793 95.6554C19.0418 95.8656 19.9516 96.6955 20.71 97.5636C21.0958 98.0053 21.4825 98.5053 21.8691 99.0021C22.2623 99.5073 22.6676 100.024 23.1182 100.542C24.3304 101.935 25.568 102.419 27.8447 102.973C29.3909 103.349 30.6863 103.204 31.877 102.893C32.4837 102.734 33.0577 102.534 33.6465 102.329C34.2201 102.13 34.8248 101.919 35.4258 101.777C36.0305 101.633 36.5898 101.521 37.0947 101.42C37.6061 101.318 38.0528 101.229 38.4658 101.128C39.2837 100.927 39.8933 100.694 40.4248 100.297C40.7405 100.061 41.0384 99.8476 41.3047 99.6564C41.5745 99.4627 41.8086 99.2938 42.0146 99.1369C42.4462 98.8081 42.654 98.6011 42.749 98.4513C43.2689 97.6316 44.0526 97.1271 44.8467 96.798C45.6365 96.4708 46.5132 96.2854 47.3096 96.1476C48.1584 96.0007 48.8465 95.9164 49.4902 95.7794C50.1502 95.6389 50.4537 95.496 50.5635 95.3956C51.0774 94.9251 51.5423 94.2903 52.21 93.382C52.8607 92.4967 53.6573 91.4227 54.7812 90.2091C55.4118 89.528 55.5793 88.9213 56.0645 88.0158L56.1523 87.8673C56.6136 87.1617 57.3821 86.994 57.9121 86.9738C58.4851 86.9521 59.0608 87.0814 59.4102 87.1681C60.1472 87.3511 60.6607 87.8163 60.9648 88.4591C61.2376 89.0361 61.3355 89.7402 61.375 90.4621C61.4153 91.2007 61.3986 92.0842 61.374 93.0744C61.3492 94.0772 61.3153 95.2148 61.3145 96.5089C61.314 97.4284 61.6813 98.1192 62.248 98.7658C62.5392 99.0979 62.8738 99.408 63.2373 99.7306C63.5847 100.039 63.9859 100.382 64.3281 100.726C65.118 101.519 65.7637 102.346 66.3184 103.009C66.8946 103.698 67.3834 104.224 67.9404 104.595C69.3497 105.534 70.863 106.317 72.1768 106.623C72.3579 106.665 72.8287 106.727 73.624 106.795C74.3948 106.861 75.4137 106.927 76.6445 106.99C79.1055 107.116 82.4007 107.226 86.2412 107.282C87.6144 107.303 88.4921 107.387 89.0713 107.545C89.3726 107.628 89.6513 107.745 89.8877 107.929C90.1407 108.126 90.2769 108.345 90.3604 108.509C90.7875 109.347 91.1715 110.171 91.6279 110.951C92.0807 111.725 92.5438 112.343 93.0537 112.745C93.232 112.886 93.522 113.022 93.9727 113.138C94.4183 113.253 94.9552 113.332 95.582 113.401C96.787 113.533 98.3571 113.624 99.8193 113.92C100.066 113.97 100.308 113.988 100.494 113.979C100.511 113.978 100.528 113.975 100.543 113.974C100.552 113.904 100.562 113.809 100.569 113.678C100.588 113.333 100.586 112.581 100.899 111.951C101.498 110.749 102.578 110.167 103.579 109.849C104.539 109.544 105.656 109.421 106.354 109.297C108.069 108.992 108.962 108.354 109.667 107.864C110.457 107.316 111.382 107.541 111.876 107.783C112.214 107.949 112.545 108.226 112.744 108.653C112.939 109.071 112.962 109.534 112.883 109.988C112.48 112.29 111.427 114.18 110.532 115.542C110.278 115.929 110.014 116.304 109.789 116.622C110.012 116.541 110.235 116.453 110.438 116.372C111.114 116.102 111.73 115.478 112.381 114.572C112.7 114.129 113.001 113.656 113.317 113.165C113.6 112.726 113.898 112.269 114.209 111.851C114.205 111.789 114.196 111.65 114.203 111.532C114.214 111.361 114.263 111.022 114.542 110.732C115.506 109.728 116.834 109.944 117.763 110.219C118.265 110.367 118.785 110.574 119.272 110.771C119.775 110.974 120.248 111.168 120.715 111.327C122.665 111.993 124.439 112.438 126.331 112.776C128.238 113.116 130.15 113.875 131.665 115.01C132.698 115.783 133.483 116.769 134.134 117.698C134.458 118.162 134.763 118.634 135.042 119.058C135.327 119.49 135.588 119.878 135.849 120.218C135.884 120.264 136.114 120.449 136.872 120.612C137.571 120.764 138.513 120.856 139.678 120.918C140.836 120.98 142.164 121.008 143.628 121.043C145.086 121.078 146.669 121.119 148.311 121.204C150.455 121.316 151.907 121.991 153.067 122.693C153.35 122.865 153.616 123.038 153.86 123.198C154.109 123.361 154.333 123.508 154.553 123.643C154.992 123.912 155.367 124.102 155.749 124.207C155.991 124.274 156.382 124.306 156.836 124.282C157.282 124.259 157.704 124.189 157.987 124.104C158.718 123.884 159.224 123.379 159.879 122.66C160.475 122.005 161.27 121.068 162.486 120.683C163.68 120.305 164.907 120.653 165.899 121.027C166.409 121.218 166.936 121.451 167.407 121.649C167.896 121.854 168.346 122.032 168.773 122.157C170.412 122.637 171.852 122.161 172.449 121.912C172.818 121.759 173.198 121.531 173.628 121.243C174.002 120.993 174.558 120.594 175.009 120.299C176.006 119.648 177.224 118.995 178.772 118.923C179.873 118.872 180.589 119.521 180.958 119.958C181.388 120.468 181.674 121.074 181.888 121.651C182.101 122.224 182.27 122.848 182.425 123.389C182.587 123.954 182.737 124.445 182.924 124.86C183.11 125.273 183.302 125.542 183.507 125.709C183.937 126.059 184.546 126.095 185.538 125.783C186.017 125.633 186.509 125.425 187.03 125.205C187.528 124.995 188.077 124.762 188.588 124.614C189.241 124.425 189.971 123.673 190.653 122.485C191.302 121.354 191.774 120.063 192.017 119.201C192.062 119.04 192.082 118.689 192.064 118.024C192.049 117.427 192.008 116.614 192.006 115.757C192.001 114.014 192.151 111.844 193.016 109.69C193.985 107.276 195.24 105.816 196.587 104.128C197.722 102.706 198.588 100.655 198.968 99.0431C199.331 97.503 199.808 96.3551 199.973 94.507C200.056 93.5681 200.385 92.7287 200.726 91.965C201.083 91.1641 201.439 90.4739 201.736 89.6388C202.467 87.5886 203.085 86.1843 203.626 84.7667C204.331 82.9196 206.217 82.5296 206.987 82.466C207.846 82.3951 208.662 82.5573 209.435 82.7462C210.242 82.9438 210.994 83.1667 211.922 83.3322C213.077 83.5383 213.978 84.2737 214.718 85.0958C215.455 85.9152 216.157 86.9646 216.849 87.9601C217.838 89.3842 218.451 90.6448 218.976 91.7404C219.507 92.8507 219.922 93.7332 220.537 94.5529C221.979 96.4753 223.839 99.7438 225.583 104.493C226.857 107.963 227.27 110.289 227.535 111.966C227.81 113.702 227.909 114.424 228.411 115.094C229.983 117.189 231.574 120.011 233.228 123.092C233.368 123.353 233.6 123.531 233.998 123.637C234.424 123.75 234.981 123.762 235.631 123.693C236.272 123.624 236.932 123.486 237.546 123.349C238.111 123.223 238.735 123.072 239.164 123.034C240.112 122.952 240.723 123.616 241.039 124.089C241.379 124.597 241.624 125.232 241.801 125.761C242.273 127.173 242.075 128.684 241.756 130.027C241.594 130.709 241.389 131.39 241.197 132.027C241.003 132.674 240.822 133.274 240.688 133.84C240.589 134.26 240.619 134.737 240.707 134.978C240.786 135.193 240.947 135.37 241.255 135.529C241.583 135.699 242.016 135.815 242.53 135.91C242.963 135.991 243.623 136.08 244.049 136.18C244.284 136.235 244.561 136.314 244.811 136.446C245.06 136.579 245.392 136.822 245.554 137.253C245.763 137.809 245.832 138.387 245.888 138.81C245.95 139.278 245.999 139.585 246.107 139.838C246.256 140.186 246.569 140.537 247.677 140.84C248.816 141.151 250.567 141.347 253.278 141.521C254.259 141.583 255.026 141.818 255.654 142.17C256.276 142.518 256.711 142.953 257.049 143.32C258.078 144.44 258.357 145.726 258.455 146.87C258.503 147.424 258.511 148.006 258.53 148.489C258.55 148.998 258.582 149.44 258.665 149.841C258.735 150.18 258.762 150.619 258.787 150.839C258.819 151.122 258.861 151.298 258.924 151.427C259.345 152.285 259.999 152.817 260.793 153.275C261.203 153.511 261.615 153.709 262.069 153.939C262.504 154.158 262.976 154.407 263.401 154.712C264.474 155.482 265.028 156.752 265.422 157.855C265.858 159.075 266.115 160.106 266.566 161.012C266.876 161.633 267.567 162.28 268.578 163.056C269.514 163.774 270.748 164.616 271.751 165.501C273.26 166.832 274.52 168.011 275.468 169.913C275.637 170.252 276.103 170.545 277.486 170.687C278.13 170.753 278.865 170.779 279.709 170.81C280.54 170.84 281.459 170.877 282.415 170.966C284.641 171.174 287.265 171.377 289.358 171.595C290.409 171.704 291.361 171.82 292.093 171.948C292.457 172.012 292.791 172.082 293.066 172.163C293.204 172.204 293.345 172.253 293.478 172.313C293.566 172.353 293.691 172.416 293.815 172.512L293.938 172.619L294.086 172.775C294.23 172.934 294.362 173.101 294.48 173.255C294.651 173.477 294.792 173.67 294.965 173.884C295.293 174.291 295.66 174.675 296.16 174.993C297.363 175.759 299.063 176.161 300.857 176.499C301.717 176.661 302.62 176.815 303.401 176.986C304.177 177.157 304.953 177.37 305.566 177.696C306.469 178.177 307.516 178.288 308.805 178.392C310.021 178.489 311.487 178.581 312.827 179.212C313.583 179.568 314.105 180.176 314.492 180.672C314.928 181.23 315.188 181.626 315.538 181.953C316.076 182.455 317.05 182.634 318.338 182.558C318.948 182.522 319.563 182.433 320.134 182.339C320.674 182.25 321.243 182.144 321.646 182.097C322.402 182.009 325.055 181.802 328.598 182.032C329.219 182.073 329.726 182.321 330.117 182.719C330.476 183.084 330.701 183.54 330.864 183.942C331.024 184.335 331.177 184.815 331.316 185.211C331.466 185.636 331.625 186.047 331.832 186.439C331.839 186.451 331.895 186.537 332.116 186.675C332.333 186.811 332.637 186.952 333.036 187.108C333.432 187.262 333.883 187.414 334.387 187.584C334.884 187.752 335.428 187.934 335.977 188.139C337.291 188.63 337.904 189.922 338.305 190.803C338.534 191.308 338.706 191.723 338.915 192.106C339.12 192.48 339.303 192.711 339.48 192.845C340.404 193.541 341.793 193.911 343.476 194.263C343.701 194.31 343.945 194.374 344.165 194.43C344.395 194.488 344.619 194.543 344.847 194.588C345.206 194.659 345.55 194.695 345.881 194.679C345.887 194.664 345.896 194.648 345.903 194.631C346.011 194.387 346.292 193.671 347.052 193.353L347.171 193.307C347.765 193.101 348.333 193.212 348.73 193.33C348.949 193.395 349.16 193.476 349.335 193.544C349.522 193.617 349.666 193.675 349.806 193.721C351.16 194.169 351.843 195.403 352.329 196.26C352.887 197.242 353.297 197.961 353.993 198.373C354.508 198.677 355.079 198.785 355.94 198.709C356.845 198.629 357.953 198.361 359.521 197.983C360.306 197.793 360.558 197.484 361.1 197.072L361.258 196.97C361.63 196.769 362.01 196.817 362.227 196.876C362.481 196.945 362.702 197.073 362.861 197.181C363.19 197.403 363.499 197.703 363.712 197.948C364.514 198.873 364.842 199.99 365.021 201.141C365.191 202.241 365.25 203.619 365.383 204.947C365.453 205.642 365.891 206.32 366.647 207.143C367.024 207.552 367.418 207.934 367.85 208.376C368.156 208.69 368.471 209.025 368.765 209.379C368.9 209.226 369.071 209.012 369.277 208.728C369.595 208.289 370.002 207.688 370.384 207.206C370.748 206.746 371.248 206.181 371.851 205.913C373.513 205.174 375.107 206.107 376.233 207.027C377.396 207.978 378.554 209.338 379.366 210.174C381.142 212.001 382.561 214.014 383.203 216.048C383.279 216.289 383.294 216.513 383.293 216.687C383.292 216.845 383.277 217.016 383.271 217.099C383.262 217.215 383.264 217.269 383.266 217.287C383.564 217.887 384.23 218.273 384.747 218.459C384.784 218.425 384.832 218.38 384.889 218.318C385.037 218.157 385.159 218.006 385.357 217.779C385.534 217.578 385.749 217.343 385.993 217.137C386.587 216.636 386.824 215.995 387.006 215.264C387.086 214.944 387.182 214.479 387.3 214.13C387.421 213.77 387.649 213.251 388.175 212.935L388.354 212.839C388.775 212.64 389.224 212.606 389.595 212.629C390.03 212.656 390.459 212.768 390.823 212.911C392.497 213.569 393.24 215.258 393.701 216.747C393.941 217.522 394.136 218.356 394.323 219.119C394.516 219.902 394.703 220.621 394.937 221.248C395.094 221.672 395.49 222.039 396.387 222.322C397.276 222.604 398.467 222.738 399.913 222.826C400.194 222.801 400.432 222.769 400.679 222.735C400.933 222.699 401.222 222.66 401.525 222.659C401.86 222.658 402.245 222.702 402.685 222.91C402.959 223.04 403.231 223.222 403.514 223.459C403.596 223.418 403.672 223.386 403.724 223.367C403.859 223.319 404.034 223.268 404.212 223.218C404.216 223.214 404.222 223.21 404.228 223.205C404.301 223.135 404.404 223.018 404.544 222.838C404.828 222.472 405.16 221.986 405.593 221.374C406.011 220.784 406.123 220.156 406.115 219.527C406.111 219.207 406.076 218.896 406.035 218.586C405.999 218.309 405.946 217.951 405.939 217.659C405.928 217.108 406.087 216.637 406.277 216.211C406.444 215.837 406.728 215.311 406.962 214.83C407.124 214.497 407.187 214.181 407.228 213.877C407.243 213.764 407.269 213.528 407.29 213.395C407.311 213.264 407.359 212.967 407.536 212.701L407.652 212.546C407.937 212.208 408.312 212.025 408.604 211.917C408.95 211.79 409.332 211.713 409.654 211.655C410.009 211.592 410.289 211.551 410.569 211.489C410.847 211.428 411.007 211.37 411.091 211.321C411.168 211.277 411.291 211.158 411.434 210.884C411.572 210.617 411.686 210.289 411.791 209.932C412.106 208.863 412.309 208.168 412.625 207.418C412.726 207.178 412.774 206.902 412.855 206.489L412.914 206.195L413.124 205.983C413.609 205.491 414.219 205.392 414.703 205.392H415.149C415.314 205.274 415.514 205.203 415.731 205.203C417.427 205.203 419.754 205.486 420.633 205.552C420.671 205.555 420.7 205.552 420.723 205.551C420.756 205.448 420.792 205.23 420.777 204.837C420.76 204.359 420.697 203.947 420.654 203.392C420.635 203.145 420.622 202.876 420.636 202.622C420.649 202.383 420.689 202.061 420.839 201.76C421.599 200.234 423.177 199.898 424.534 199.895C425.906 199.891 427.486 200.222 428.743 200.449C429.392 200.567 429.722 201.048 429.871 201.41C430.01 201.75 430.058 202.13 430.083 202.413C430.104 202.652 430.125 203.087 430.138 203.258C430.158 203.523 430.184 203.659 430.204 203.715C430.234 203.8 430.327 203.962 431.213 204.21C431.963 204.42 433.169 204.663 434.373 205.222C437.075 206.477 437.447 209.384 437.688 210.638C437.698 210.642 437.709 210.644 437.721 210.648C437.726 210.631 437.733 210.613 437.736 210.595C437.749 210.52 437.745 210.446 437.734 210.195C437.726 210.002 437.709 209.62 437.859 209.232L437.95 209.038C438.185 208.612 438.578 208.363 438.891 208.218C439.266 208.043 439.704 207.934 440.13 207.859C440.787 207.742 441.552 207.684 442.291 207.649C442.259 207.365 442.201 207.002 442.129 206.542C442.032 205.924 441.924 205.183 441.909 204.451C441.894 203.729 441.966 202.92 442.298 202.199C442.548 201.657 442.996 201.356 443.412 201.193C443.81 201.038 444.243 200.981 444.609 200.951C444.969 200.922 445.388 200.914 445.695 200.9C445.852 200.892 445.992 200.882 446.116 200.87C446.113 200.828 446.11 200.78 446.104 200.73C446.091 200.601 446.074 200.464 446.054 200.308C446.034 200.157 446.013 199.987 445.997 199.818C445.967 199.498 445.945 199.081 446.029 198.684C446.286 197.474 446.98 196.65 447.534 196.079C447.857 195.746 448.019 195.607 448.22 195.388C448.339 195.258 448.38 195.192 448.39 195.177C448.532 194.59 448.349 193.987 447.985 193.07C447.664 192.259 447.146 191.096 447.329 189.846C447.533 188.459 448.76 187.884 449.244 187.64C449.902 187.308 450.76 187.038 451.694 187.38C453.31 187.971 454.228 189.261 454.782 190.496C454.813 190.564 454.839 190.635 454.868 190.703C455.118 189.971 455.646 189.52 456.218 189.235C456.789 188.95 457.486 188.79 458.074 188.652C459.353 188.349 460.515 188.05 461.386 187.102C462.567 185.815 463.938 185.117 465.582 184.666C468.175 183.956 470.515 184.806 471.68 185.636C472.431 186.171 472.759 186.949 472.953 187.565C473.049 187.869 473.13 188.195 473.196 188.444C473.268 188.715 473.331 188.925 473.403 189.096C473.762 189.938 474.511 190.295 475.603 190.413C476.144 190.472 476.71 190.463 477.262 190.443C477.764 190.424 478.358 190.388 478.792 190.431C479.132 190.464 479.631 190.6 479.934 191.077C480.222 191.534 480.145 192.016 480.072 192.278C479.929 192.797 479.545 193.372 479.24 193.813C478.886 194.325 478.546 194.781 478.268 195.232C478.133 195.449 478.034 195.631 477.972 195.779C477.921 195.9 477.909 195.962 477.906 195.977C477.905 196.675 478.302 197.255 478.947 197.88C479.104 198.032 479.265 198.178 479.432 198.326C479.593 198.47 479.768 198.625 479.925 198.775C480.175 199.013 480.548 199.39 480.724 199.868C480.738 199.876 480.756 199.888 480.78 199.9C480.94 199.975 481.185 200.044 481.516 200.111C482.116 200.234 482.677 200.193 482.948 200.061C483.349 199.864 483.706 199.456 484.032 198.75C484.359 198.043 484.598 197.161 484.839 196.17C485.071 195.216 485.309 194.142 485.628 193.2C485.945 192.266 486.391 191.301 487.135 190.624C487.458 190.33 487.848 190.107 488.035 189.986C488.272 189.835 488.316 189.776 488.327 189.756C488.88 188.809 489.273 187.882 489.693 186.853C490.111 185.831 490.557 184.707 491.202 183.453C492.584 180.769 494.354 179.341 495.989 177.908C496.159 177.759 496.254 177.515 496.371 176.957C496.419 176.727 496.485 176.385 496.592 176.085C496.703 175.771 496.904 175.367 497.315 175.077L497.443 174.997C498.085 174.638 498.747 174.925 499.029 175.085C499.401 175.296 499.738 175.618 499.961 175.945C500.364 176.538 500.532 177.23 500.646 177.794C500.773 178.422 500.837 178.898 500.989 179.382C501.445 180.833 500.977 182.235 500.481 183.361C500.236 183.92 499.93 184.521 499.697 185.014C499.449 185.539 499.253 186.004 499.139 186.432C499.077 186.663 499.122 186.804 499.246 186.958C499.409 187.16 499.719 187.377 500.177 187.579C500.863 187.883 501.658 188.058 502.191 188.157C502.196 187.908 502.178 187.555 502.133 187.075C502.006 185.746 501.712 183.707 502.017 181.884C502.284 180.289 503.176 178.946 503.952 177.802C504.774 176.591 505.474 175.59 505.765 174.476C506.229 172.699 506.464 171.323 506.693 170.122C506.92 168.937 507.149 167.872 507.616 166.851C508.038 165.93 508.437 164.839 508.941 163.527C509.439 162.233 510.025 160.765 510.8 159.171C511.415 157.904 511.777 156.313 512.035 154.718C512.163 153.927 512.263 153.156 512.358 152.438C512.452 151.731 512.545 151.056 512.657 150.5C513.135 148.135 514.194 143.825 514.869 140.748C515.494 137.905 516.524 136.007 518.656 134.25C519.356 133.674 520.151 133.428 521.056 133.275C521.53 133.194 522.126 133.144 522.716 133.234C522.965 133.271 523.231 133.34 523.492 133.448C523.626 132.773 523.808 132.076 524.059 131.553C524.924 129.747 525.483 127.782 525.897 122.599C526.178 119.088 528.244 116.954 529.216 115.373C530.254 113.684 531.224 112.338 532.063 111.663L532.219 111.55C532.586 111.311 532.987 111.231 533.322 111.207C533.7 111.18 534.095 111.219 534.428 111.256C535.171 111.34 535.722 111.421 536.221 111.322C536.791 111.209 537.238 110.73 537.602 109.682C537.967 108.628 538.113 107.419 538.342 106.247C538.576 105.049 539.16 103.847 539.804 102.766C540.451 101.677 541.206 100.636 541.82 99.7775L541.911 99.6613C542.388 99.1149 543.142 99.0524 543.728 99.3703C544.302 99.6824 544.665 100.294 544.845 100.992C545.738 104.46 544.857 107.579 544.406 108.777C544.26 109.167 544.274 109.632 544.485 110.227C544.7 110.832 545.09 111.488 545.579 112.193C545.821 112.542 546.078 112.89 546.339 113.241C546.597 113.588 546.864 113.944 547.108 114.288C547.583 114.955 548.062 115.694 548.286 116.414C548.426 116.865 548.448 117.291 548.406 117.678C549.618 116.973 551.022 116.069 551.914 115.525C552.281 115.301 552.678 115.177 552.877 115.109C552.942 115.086 552.987 115.067 553.02 115.054C553.238 114.688 553.236 114.117 553.031 113.199C552.945 112.812 552.784 112.21 552.705 111.801C552.626 111.39 552.532 110.769 552.752 110.213C553.409 108.557 554.633 107.637 555.715 106.938C556.29 106.566 556.747 106.304 557.217 105.974C557.66 105.662 558.008 105.359 558.266 105.013C559.479 103.384 560.383 101.765 561.55 100.014C562.626 98.3998 563.074 96.7261 563.504 95.4249C563.927 94.1464 565.141 93.6872 566.029 93.4787C566.504 93.3673 566.997 93.3019 567.425 93.2492C567.876 93.1935 568.235 93.1531 568.534 93.0939C569.186 92.9644 569.643 92.3939 570.091 91.1974C570.311 90.6092 570.474 90.0361 570.69 89.3839C570.89 88.7836 571.135 88.1221 571.492 87.5861C572.89 85.4891 575.408 83.808 577.352 83.0617C577.528 82.9939 577.595 82.9238 577.624 82.8849C577.655 82.8429 577.693 82.767 577.708 82.6183C577.743 82.2748 577.644 81.7576 577.404 81.0412C577.153 80.2876 576.882 79.6687 576.585 78.8361C576.327 78.114 576.069 77.2741 576.091 76.5138C576.119 75.5328 576.631 74.7871 577.128 74.2746C577.618 73.7696 578.204 73.3835 578.514 73.1652L578.614 73.0988C579.121 72.7924 579.659 72.829 580.073 72.963C580.484 73.096 580.856 73.346 581.146 73.5685C581.446 73.7977 581.744 74.0654 581.991 74.2843C582.181 74.4526 582.34 74.5901 582.476 74.6974C582.564 74.596 582.687 74.4322 582.833 74.1818C583.046 73.816 583.232 73.4251 583.448 73.005C583.55 72.8085 583.66 72.6035 583.773 72.421C583.879 72.2508 584.027 72.0347 584.219 71.8615C584.871 71.2721 585.713 71.1854 586.326 71.1896C586.65 71.1918 586.971 71.2212 587.25 71.2501C587.547 71.2809 587.776 71.3084 587.994 71.3234C589.298 71.413 590.088 72.2213 590.513 73.173C590.859 73.9494 590.998 74.8782 591.061 75.7384C591.262 75.5991 591.478 75.4839 591.66 75.3927C592.28 75.0827 592.821 74.8689 593.296 74.5421C593.542 74.3724 593.871 73.9271 594.17 73.0148C594.458 72.1354 594.673 70.9653 594.806 69.5548C594.84 69.1879 594.94 68.83 595.142 68.5206C595.352 68.1988 595.64 67.9821 595.955 67.8595C596.525 67.6379 597.11 67.7539 597.416 67.8292C598.083 67.9935 598.714 68.2708 599.214 68.4884C599.474 68.6017 599.691 68.6932 599.874 68.7638C600.057 68.509 600.344 68.2095 600.802 68.0206C602.967 67.1285 604.8 67.4648 606.354 68.0763C607.105 68.3721 607.819 68.7432 608.438 69.0509C609.077 69.369 609.621 69.6216 610.138 69.7677C610.153 69.7661 610.298 69.7622 610.569 69.5343C610.873 69.2785 611.203 68.8369 611.433 68.2482C612.074 66.6042 612.273 65.0705 612.41 63.7609C612.477 63.1265 612.535 62.4861 612.629 61.9562C612.72 61.4429 612.873 60.8471 613.244 60.3829C613.822 59.6599 614.781 58.7568 615.777 58.2511C616.305 57.9834 616.871 57.8267 617.417 57.8244C617.528 57.8239 617.641 57.8311 617.755 57.8449C617.79 56.8138 617.86 55.8417 617.978 55.004C618.068 54.3618 618.189 53.7631 618.359 53.2648C618.517 52.8037 618.77 52.2614 619.224 51.9191C620.357 51.0645 621.505 50.5882 622.434 50.1788C623.396 49.7546 624.091 49.4141 624.631 48.8517C624.716 48.763 624.788 48.6367 624.952 48.3439C625.085 48.1078 625.308 47.706 625.672 47.3986C626.292 46.8751 627.029 46.676 627.688 46.6027C628.341 46.5302 629.015 46.5722 629.553 46.6056C631.15 46.7049 632.353 47.7425 633.353 48.7433C634.43 49.8221 635.342 50.9255 636.569 51.8361C636.657 51.9011 636.821 51.9747 637.116 52.0363C637.412 52.0978 637.746 52.1302 638.155 52.171C638.538 52.2093 638.993 52.256 639.421 52.3556C639.849 52.4554 640.337 52.6266 640.752 52.9718C642.843 54.7119 643.644 56.8018 644.257 58.5216C644.901 60.33 645.291 61.4791 646.331 62.1593C647.914 63.1942 648.38 65.1051 648.693 66.5997C648.865 67.4172 648.992 68.1418 649.183 68.8253C649.371 69.4996 649.593 70.0114 649.884 70.3751C651.483 72.3748 652.422 74.2217 653.302 75.8439C654.185 77.4723 655.014 78.8824 656.416 80.2179C657.767 81.5046 657.977 83.2238 657.858 84.7287C657.743 86.1956 657.278 87.7591 657.06 88.754C656.977 89.1298 657.041 89.388 657.123 89.5138C657.679 90.3644 658.712 91.5032 659.982 92.8312C661.223 94.1276 662.667 95.5825 663.931 96.9845C664.811 97.9608 665.415 99.196 665.928 100.376C666.463 101.608 666.891 102.753 667.457 103.812C667.891 104.624 667.77 105.49 667.681 106.049C667.573 106.723 667.496 107.08 667.558 107.414C667.719 108.279 668.413 109.113 669.57 110.157C670.638 111.122 672.109 112.267 673.207 113.586C674.295 114.894 675.065 116.366 675.647 117.551C675.948 118.162 676.183 118.664 676.404 119.082C676.638 119.523 676.779 119.717 676.845 119.777C677.644 120.514 678.661 120.625 679.827 120.515C680.434 120.457 680.942 120.359 681.53 120.279C682.018 120.213 682.684 120.137 683.246 120.322C685.039 120.914 685.849 122.551 686.544 124.04C687.283 125.625 688.009 127.362 689.478 129.025C689.637 129.206 689.795 129.386 689.951 129.564C690.041 128.171 690.677 126.134 691.312 124.136C691.974 122.049 692.672 119.906 693.002 118.132C693.409 115.942 694.011 114.172 694.262 113.226C694.574 112.046 695.747 111.598 696.557 111.388C697.449 111.157 698.538 111.061 699.386 110.964C700.05 110.888 700.606 110.353 701.446 109.258C702.187 108.293 703.139 106.898 704.538 106.115C705.072 105.817 705.653 105.757 706.128 105.768C706.607 105.778 707.074 105.863 707.427 105.932C708.197 106.083 708.666 106.709 708.96 107.193C709.279 107.719 709.587 108.419 709.913 109.167C710.583 110.703 711.44 112.705 712.898 114.913C713.415 115.695 714.202 116.095 716.12 116.315C717.078 116.424 718.247 116.482 719.718 116.547C721.178 116.612 722.913 116.684 724.959 116.823C725.836 116.883 726.63 117.129 727.068 117.786C727.498 118.43 727.349 119.133 727.274 119.436C726.966 120.69 726.651 121.753 726.861 122.71C726.863 122.718 726.866 122.726 726.867 122.732C726.882 122.738 726.907 122.748 726.945 122.756C727.176 122.805 727.57 122.788 728.161 122.685C728.773 122.578 729.302 122.442 729.996 122.306C730.603 122.187 731.308 122.074 731.927 122.145C733.579 122.334 734.285 123.7 734.601 124.828C734.732 124.522 734.871 124.213 735.021 123.915C735.412 123.134 735.914 122.314 736.551 121.767C738.382 120.193 739.272 118.77 739.391 117.072C739.458 116.106 739.217 114.932 738.983 113.456C738.765 112.073 738.568 110.466 738.928 108.967C739.377 107.095 740.798 105.995 741.962 105.193C742.589 104.76 743.106 104.437 743.576 104.068C744.032 103.71 744.311 103.404 744.456 103.106C744.797 102.401 744.942 101.603 745.166 100.62C745.374 99.7092 745.657 98.6246 746.364 97.7384C747.053 96.877 747.992 96.4936 748.918 96.6007C749.423 96.6593 749.931 96.8862 750.347 97.3576C750.74 97.8041 751.002 98.4132 751.164 99.1622C751.323 99.8974 751.397 100.843 751.448 101.634C751.468 101.934 751.484 102.205 751.499 102.443C751.676 102.279 751.882 102.084 752.114 101.854C753.231 100.748 754.864 99.013 756.482 98.1632C757.584 97.5847 758.674 96.8588 759.827 96.1222C760.953 95.4026 762.139 94.6733 763.338 94.1828C764.133 93.8576 764.816 94.2906 765.138 94.5597C765.501 94.8634 765.787 95.2604 765.965 95.5656C766.178 95.9319 766.28 96.3184 766.339 96.5148C766.348 96.5465 766.359 96.574 766.366 96.5978C766.446 96.5893 766.555 96.5674 766.685 96.5197C767.778 96.1157 768.804 95.4976 769.872 94.797C770.911 94.1155 772.03 93.3277 773.189 92.7101C773.469 92.5611 773.761 92.4241 774.018 92.3019C774.284 92.1751 774.525 92.057 774.755 91.9259C775.204 91.6694 775.581 91.3767 775.885 90.9484C776.759 89.7148 776.983 88.7042 777.036 87.9064C777.064 87.4869 777.046 87.1196 777.032 86.7374C777.021 86.4062 777.004 85.9391 777.122 85.5206C777.577 83.9159 778.897 83.2774 779.937 82.9747C780.456 82.8237 780.983 82.7332 781.362 82.6613C781.563 82.6232 781.719 82.5915 781.842 82.5587C781.943 82.5319 781.988 82.5132 781.998 82.5089C782.523 82.2043 782.82 81.6458 783.316 80.6105C783.774 79.6556 784.367 78.4065 785.599 77.4181C786.834 76.4266 787.928 75.6491 788.875 74.9591C789.831 74.2625 790.629 73.6599 791.339 72.9845C792.428 71.9485 793.979 71.6765 795.077 71.5382C796.648 71.3406 797.901 72.1338 798.928 73.0548C799.447 73.521 799.955 74.062 800.45 74.6007C800.955 75.15 801.451 75.6999 801.983 76.2345C803.337 77.5932 804.492 78.2967 805.392 78.7619C805.621 78.8804 805.836 78.9846 806.042 79.0841C806.243 79.1812 806.448 79.2792 806.633 79.3751C806.984 79.5575 807.402 79.7983 807.712 80.171C807.767 80.2369 807.932 80.3453 808.461 80.4103C808.709 80.4408 808.958 80.4546 809.263 80.4777C809.531 80.4981 809.844 80.5265 810.146 80.588C810.166 80.5584 810.196 80.5112 810.229 80.4396C810.402 80.0662 810.528 79.4221 810.607 78.5421C810.685 77.6867 810.71 76.7344 810.743 75.7902C810.775 74.8746 810.815 73.9391 810.931 73.2101C811.149 71.8397 812.03 70.8395 813.029 70.1037C814.026 69.3703 815.251 68.8166 816.368 68.3624C817.328 67.972 817.843 67.0372 818.121 65.7003C818.257 65.0481 818.322 64.362 818.369 63.7003C818.414 63.0757 818.447 62.3972 818.523 61.8966C818.77 60.2794 819.927 59.3025 821.103 58.7023C822.184 58.1505 823.444 57.831 824.435 57.5968C824.448 57.5646 824.466 57.5261 824.481 57.4796C824.586 57.1676 824.678 56.6787 824.759 56.007C824.92 54.6659 825.003 52.8808 825.143 50.8751C825.198 50.0758 825.462 49.2904 826.17 48.9152C826.78 48.5924 827.386 48.7486 827.773 48.9533L827.926 49.0431L828.139 49.1915C829.173 49.9604 829.755 51.1127 830.09 52.3253C830.447 53.6187 830.558 55.1001 830.588 56.5392C830.617 57.9536 830.566 59.4914 830.568 60.7394C830.571 62.0579 830.63 63.1049 830.831 63.8185C831.037 64.5526 831.073 65.3937 831.1 66.048C831.13 66.7954 831.151 67.2519 831.234 67.5099C831.409 68.0486 831.843 68.3323 832.605 68.4347C833.383 68.539 834.246 68.4048 834.789 68.3038C834.865 68.2896 835.176 68.1826 835.396 67.4279C835.993 65.387 835.955 63.9413 835.806 62.88C835.727 62.3241 835.622 61.8886 835.53 61.4298C835.449 61.0234 835.356 60.5073 835.443 60.007C835.731 58.3654 837.249 57.6747 838.434 57.3038C839.072 57.104 839.764 56.9524 840.395 56.8146C841.045 56.6724 841.629 56.5456 842.132 56.3888C843.073 56.0953 843.804 55.3926 844.701 54.4845C845.521 53.6545 846.549 52.5667 847.956 52.1662C850.551 51.4278 853.142 52.5979 855.124 53.8683C855.589 54.1667 855.879 54.6356 856.069 55.0744C856.266 55.5268 856.406 56.0613 856.513 56.6271C856.726 57.7602 856.832 59.1862 856.901 60.7023C857.043 63.7983 857.038 67.308 857.376 70.1867C857.388 70.293 857.397 70.4001 857.409 70.505C858.446 69.5003 859.692 69.0931 860.359 68.8849C860.426 68.8641 860.671 68.7788 860.863 68.7374C861.087 68.6893 861.448 68.6462 861.834 68.8038C862.236 68.9679 862.501 69.279 862.673 69.6085C862.838 69.9251 862.947 70.3122 863.025 70.7501C863.179 71.6042 863.253 72.931 863.337 74.1603C863.425 75.4515 863.524 76.6601 863.707 77.4464C863.884 78.2045 864.089 78.3224 864.097 78.3263C864.126 78.3429 864.222 78.3784 864.635 78.3107C866.061 78.0764 866.987 77.3807 867.516 76.9816L867.659 76.882C868.007 76.663 868.441 76.5407 868.915 76.6603C869.402 76.7835 869.735 77.1176 869.944 77.3947C870.358 77.9409 870.656 78.7541 870.893 79.5128C871.138 80.3012 871.366 81.2087 871.579 82.0021C871.801 82.8278 872.004 83.5226 872.212 83.9962C872.389 84.4002 872.442 84.8258 872.474 85.0167C872.484 85.0775 872.495 85.1199 872.501 85.1496C872.671 85.2814 872.933 85.3536 873.421 85.2677C874.005 85.1648 874.724 84.861 875.542 84.4318C876.372 83.9965 877.141 83.5236 877.957 83.0685C878.695 82.6568 879.524 82.2279 880.239 82.1066C881.201 81.9436 881.964 82.3416 882.482 82.9699C882.951 83.5383 883.234 84.3004 883.427 85.0187C883.625 85.7574 883.758 86.5707 883.865 87.3175C883.977 88.0916 884.057 88.7644 884.158 89.3302C884.424 90.8247 884.775 91.9693 885.06 93.2492C885.33 94.4668 885.508 95.7027 885.265 97.0089C885.149 97.6311 884.957 98.2448 884.8 98.7736C884.635 99.3269 884.502 99.806 884.443 100.267C884.33 101.156 884.84 101.948 885.879 102.97C886.127 103.214 886.389 103.457 886.662 103.71C886.931 103.96 887.214 104.221 887.481 104.487C888.009 105.013 888.548 105.62 888.898 106.321C888.932 106.388 888.97 106.456 889.009 106.526C889.254 105.675 889.835 105.097 890.331 104.7C890.598 104.487 890.878 104.297 891.098 104.146C891.335 103.981 891.498 103.865 891.613 103.761L891.782 103.626C892.185 103.347 892.648 103.285 893.016 103.318C893.429 103.354 893.885 103.52 894.223 103.847C894.754 104.362 895.111 104.953 895.366 105.525C895.654 104.994 896.098 104.593 896.507 104.296C897.094 103.87 897.795 103.527 898.322 103.263C899.304 102.77 900.203 103.18 900.741 103.546C901.02 103.736 901.267 103.955 901.462 104.138C901.465 104.141 901.469 104.144 901.472 104.147C901.485 104.128 901.502 104.108 901.517 104.088C901.684 103.852 901.925 103.498 902.181 103.208C902.422 102.935 902.826 102.54 903.395 102.417L903.548 102.388C905.117 102.133 906.224 103.274 906.86 104.017C907.042 104.228 907.215 104.445 907.367 104.635C907.525 104.831 907.66 104.998 907.787 105.141C907.916 105.285 908.011 105.378 908.081 105.432C908.094 105.442 908.106 105.449 908.114 105.454C909.095 105.623 910.176 105.205 911.449 104.476C912.132 104.084 912.635 103.751 913.325 103.345C913.938 102.985 914.603 102.629 915.266 102.438C915.371 102.407 915.42 102.377 915.438 102.365C915.439 102.36 915.441 102.352 915.442 102.343C915.449 102.304 915.455 102.245 915.455 102.153C915.457 101.669 915.395 101.218 915.354 100.523C915.317 99.8847 915.311 99.1459 915.474 98.3654C915.696 97.3 916.423 96.6043 917.112 96.1466C917.788 95.698 918.581 95.3825 919.084 95.1622C920.423 94.5758 921.946 94.7662 923.335 95.0509C924.838 95.359 926.206 95.7752 927.761 95.9796C928.478 96.074 929.162 96.2712 929.663 96.3908C930.206 96.5203 930.599 96.5784 930.962 96.5333C931.951 96.4105 932.76 95.9644 933.505 95.4445C933.691 95.3145 933.87 95.1819 934.049 95.049C934.224 94.9191 934.406 94.783 934.58 94.6593C934.911 94.4238 935.318 94.1555 935.757 94.0177C937.363 93.5136 938.706 94.3651 939.674 95.1535C940.168 95.5561 940.673 96.0352 941.108 96.4269C941.568 96.8403 941.98 97.1843 942.379 97.4288C942.422 97.4553 942.57 97.522 942.973 97.3214C943.36 97.1283 943.785 96.7729 944.153 96.379C944.16 96.366 944.182 96.322 944.204 96.2277C944.24 96.0751 944.263 95.8739 944.28 95.6134C944.295 95.3938 944.309 95.0504 944.331 94.7931C944.354 94.5263 944.397 94.1781 944.52 93.8624C944.851 93.0094 945.551 92.5821 945.988 92.3244C946.518 92.0123 946.711 91.9037 946.828 91.7287C947.365 90.923 947.526 89.7577 947.476 87.9943C947.451 87.1295 947.38 86.1825 947.308 85.1183C947.236 84.0637 947.166 82.9106 947.147 81.6779C947.124 80.0794 947.639 78.8249 948.267 77.7472C948.574 77.2194 948.919 76.7174 949.232 76.255C949.553 75.7815 949.847 75.3406 950.099 74.8849C951.187 72.9149 952.217 70.8352 952.61 67.9855C952.716 67.2222 953.024 66.5417 953.355 65.9445C953.522 65.6442 953.704 65.3487 953.879 65.0675C954.057 64.7803 954.228 64.5085 954.392 64.2296C954.894 63.3731 955.893 62.9233 956.764 63.1076L956.936 63.1525L957.238 63.2638C958.71 63.8752 959.594 65.3456 960.262 66.5958C960.665 67.3519 960.962 67.9783 961.348 68.6749C961.712 69.3327 962.074 69.8921 962.474 70.3224C962.749 70.6184 963.113 70.7965 963.643 71.0001C964.102 71.1767 964.846 71.4169 965.419 71.8898C966.637 72.8954 966.616 74.3655 966.445 75.3712C966.784 75.1099 967.137 74.8343 967.493 74.5675C967.675 74.4305 967.892 74.0765 968.075 73.2628C968.252 72.4763 968.346 71.5309 968.488 70.4152C968.585 69.6573 969.01 69.1571 969.541 68.8839C969.986 68.6553 970.485 68.6015 970.729 68.5704C971.308 68.4971 972.18 68.4427 972.923 68.9279C974.156 69.7335 974.712 70.8804 974.995 71.8781C975.135 72.3713 975.213 72.8448 975.271 73.2257C975.335 73.6445 975.368 73.8826 975.414 74.046C975.424 74.0786 975.496 74.2348 976.037 74.4523C976.282 74.5507 976.56 74.6374 976.875 74.7326C977.174 74.8227 977.522 74.925 977.836 75.0431C978.479 75.2849 979.395 75.0196 980.513 74.1027C981.575 73.2312 982.538 71.9893 983.117 70.9982C983.648 70.0899 983.862 69.2113 983.973 68.3683C984.029 67.9378 984.057 67.5291 984.091 67.1066C984.123 66.7001 984.161 66.2639 984.242 65.8546C984.611 63.9972 986.018 62.8339 987.202 62.1115C987.808 61.7421 988.408 61.4553 988.865 61.2394C988.955 61.1969 989.037 61.1552 989.112 61.1193C989.054 61.0253 988.985 60.9154 988.903 60.7872C988.478 60.1169 987.838 59.0894 987.625 57.8722C987.4 56.5891 987.774 55.5617 988.546 54.8009C989.252 54.1055 990.234 53.6871 991.14 53.3829C991.605 53.2266 992.087 53.0892 992.545 52.9611C993.011 52.8307 993.448 52.7108 993.86 52.5822C994.721 52.3138 995.286 52.0592 995.589 51.7794C996.168 51.2447 996.521 50.4676 996.828 49.3693C996.981 48.8222 997.112 48.2417 997.264 47.5958C997.413 46.9613 997.581 46.2788 997.8 45.5851C997.966 45.059 998.233 44.5959 998.637 44.256C999.048 43.9103 999.527 43.7529 1000 43.7199C1000.89 43.6584 1001.82 44.0225 1002.61 44.421C1003.44 44.8363 1004.29 45.3867 1005.03 45.8751C1005.81 46.3847 1006.44 46.8075 1006.93 47.0509C1008.64 47.9059 1009.94 49.2653 1010.82 50.5187C1010.83 50.5035 1010.83 50.488 1010.84 50.4728C1010.95 50.1828 1011.06 49.8686 1011.16 49.6408C1011.38 49.1142 1011.4 48.3125 1011.3 47.2042C1011.21 46.2016 1011.01 44.9103 1011.02 43.8097C1011.02 42.8426 1011.33 41.4767 1011.59 40.2277C1011.83 39.0588 1012.94 38.7233 1013.55 38.6017C1013.91 38.5311 1014.29 38.4965 1014.61 38.4708C1014.96 38.4433 1015.23 38.4265 1015.47 38.3956C1017.03 38.2 1018.43 39.1544 1019.28 39.8556C1020.54 40.9075 1020.39 42.3751 1020.17 43.3341C1020.06 43.8023 1019.89 44.329 1019.8 44.6378C1019.75 44.8152 1019.72 44.9466 1019.7 45.0451C1019.7 45.0869 1019.69 45.1144 1019.69 45.1281C1019.83 45.7403 1020.42 46.3413 1021.55 46.9826C1022.09 47.2901 1022.69 47.5737 1023.32 47.8576C1023.93 48.1345 1024.58 48.4203 1025.16 48.7081C1025.73 48.9929 1026.62 49.4193 1027.04 50.6544C1027.22 51.1836 1027.3 51.8451 1027.37 52.3624C1027.44 52.9462 1027.5 53.3911 1027.6 53.7013C1027.65 53.8445 1027.8 54.0687 1028.71 54.3497C1029.13 54.4815 1029.64 54.6019 1030.26 54.7482C1030.86 54.8918 1031.55 55.0559 1032.3 55.2687C1035.31 56.1239 1037.41 58.7057 1038.96 61.2257C1040 62.9074 1041.63 64.2147 1043.07 65.2121C1043.4 64.9563 1043.78 64.903 1044.04 64.9005C1044.35 64.8976 1044.65 64.9618 1044.91 65.0275C1045.17 65.0955 1045.44 65.1858 1045.69 65.2667C1045.95 65.3514 1046.17 65.4274 1046.39 65.4884C1048.02 65.9516 1048.75 67.4575 1049.19 68.8038C1049.42 69.506 1049.61 70.2775 1049.79 71.0119C1049.97 71.7622 1050.16 72.4875 1050.38 73.1681C1051.1 75.3001 1052.56 77.411 1054.73 79.8644C1056.37 81.7105 1057.37 83.3003 1057.96 85.6515C1058.37 87.2596 1058.57 89.2135 1058.71 91.8292C1059.67 89.7239 1060.36 88.4532 1061.2 86.9611C1061.66 86.1248 1062.46 85.702 1063.03 85.4367C1063.18 85.3677 1063.33 85.3026 1063.46 85.2453C1063.59 85.186 1063.71 85.134 1063.82 85.0822C1063.93 85.0316 1064.01 84.9865 1064.08 84.9484C1064.06 84.8121 1064.03 84.6228 1063.97 84.3419C1063.84 83.7294 1063.6 82.7407 1063.78 81.7531L1063.81 81.6154C1063.98 80.9497 1064.48 80.5909 1064.91 80.4162C1065.31 80.2502 1065.77 80.2007 1066.01 80.1701C1066.59 80.0967 1067.46 80.0423 1068.21 80.5275C1069.41 81.3127 1070.3 82.497 1071.13 83.6173C1072 84.7784 1072.83 85.9401 1073.98 86.965C1074.19 87.1452 1074.36 87.3334 1074.5 87.4962C1074.6 87.3273 1074.77 87.0118 1074.92 86.7804C1075.07 86.5327 1075.29 86.2208 1075.6 85.9777C1076.29 85.4231 1077.08 85.3318 1077.8 85.466C1078.49 85.5928 1079.16 85.9249 1079.76 86.2726C1080.36 86.6218 1080.99 87.0542 1081.54 87.4171C1082.12 87.797 1082.64 88.1145 1083.11 88.3204C1083.46 88.4713 1083.91 88.555 1084.51 88.5783C1085.1 88.6015 1085.76 88.5631 1086.49 88.5119C1087.88 88.4138 1089.59 88.2558 1091.09 88.6066C1092.04 88.8291 1092.6 89.5602 1092.97 90.1056C1093.15 90.3788 1093.34 90.7099 1093.49 90.9494C1093.66 91.2142 1093.81 91.4343 1093.97 91.6154C1094.66 92.4173 1094.99 93.2571 1095.07 94.089C1095.15 94.9034 1094.98 95.6439 1094.75 96.2521C1094.54 96.8333 1094.25 97.3781 1094.09 97.7199C1094.13 97.739 1094.18 97.7604 1094.22 97.7833C1094.42 97.8862 1094.67 98.0538 1094.86 98.3351C1095.89 99.8368 1096.42 101.615 1096.87 103.13C1097.34 104.73 1097.73 105.983 1098.41 106.838C1099.15 107.767 1100 108.654 1100.92 109.666C1101.83 110.659 1102.77 111.744 1103.58 112.989C1104.02 113.672 1104.47 114.31 1104.91 114.938C1105.36 115.56 1105.8 116.179 1106.2 116.8C1107.01 118.046 1107.72 119.357 1108.07 120.906C1108.85 124.371 1109.6 126.534 1110.9 128.609C1111.57 129.669 1112.22 130.711 1113.2 131.565C1113.43 131.769 1114.04 131.996 1115.14 132.105C1116.07 132.196 1117.18 132.191 1118.37 132.117C1118.37 132.097 1118.38 132.073 1118.38 132.05C1118.38 131.925 1118.38 131.789 1118.37 131.631C1118.37 131.478 1118.36 131.304 1118.36 131.129C1118.36 130.784 1118.38 130.369 1118.47 129.965C1118.96 127.9 1121 126.974 1123.23 126.457C1125.55 125.921 1128.64 125.7 1132.06 125.459C1132.92 125.398 1133.64 124.765 1134.67 123.577C1135.62 122.497 1136.79 120.994 1138.44 120.119C1140.05 119.273 1141.51 120.068 1142.6 120.838C1143.16 121.231 1143.76 121.727 1144.3 122.145C1144.87 122.583 1145.43 122.983 1146.01 123.289C1148.38 124.546 1150.04 125.934 1150.86 127.587C1150.86 127.59 1150.87 127.61 1150.91 127.644C1150.96 127.681 1151.03 127.731 1151.15 127.787C1151.41 127.904 1151.77 128.007 1152.27 128.105C1152.75 128.201 1153.3 128.282 1153.92 128.376C1154.52 128.469 1155.17 128.574 1155.83 128.718C1156.95 128.964 1157.73 129.561 1158.26 130.361C1158.75 131.123 1158.98 132.024 1159.12 132.855C1159.25 133.672 1159.3 134.579 1159.37 135.289C1159.45 136.06 1159.55 136.63 1159.72 137.024C1159.9 137.431 1159.95 137.854 1159.98 138.071C1160 138.2 1160.02 138.278 1160.04 138.337C1160.05 138.376 1160.05 138.394 1160.06 138.399C1160.42 138.959 1161.1 139.264 1162.25 139.596C1163.28 139.893 1164.73 140.215 1165.87 141.03C1166.22 141.277 1166.4 141.612 1166.5 141.888C1166.59 142.153 1166.63 142.425 1166.65 142.623C1166.68 142.872 1166.68 142.979 1166.71 143.148C1166.73 143.284 1166.74 143.333 1166.75 143.337C1167.13 144.118 1168.09 144.55 1169.62 144.775C1170.35 144.881 1171.1 144.928 1171.85 144.98C1172.51 145.025 1173.2 145.077 1173.79 145.194C1173.82 145.15 1173.86 145.082 1173.91 144.984C1174.13 144.528 1174.33 143.797 1174.54 142.829C1174.75 141.915 1174.96 140.79 1175.22 139.747C1175.48 138.695 1175.81 137.612 1176.28 136.706C1177.08 135.146 1178.63 134.666 1180.13 134.489C1180.89 134.4 1181.72 134.378 1182.55 134.364C1183.39 134.351 1184.24 134.346 1185.11 134.295C1187.83 134.137 1190.47 133.558 1192.7 133.075C1193.76 132.844 1194.88 132.276 1196.15 131.601C1197.36 130.953 1198.71 130.199 1200.07 129.782C1202.27 129.11 1204.78 127.874 1206.29 126.373C1208.1 124.576 1211.01 123.128 1213.11 122.285C1213.88 121.978 1214.69 121.337 1215.76 120.383C1216.78 119.464 1218.01 118.284 1219.49 117.118C1225.19 112.635 1227.71 111.064 1229.67 109.861C1230.35 109.443 1231.07 109.32 1231.74 109.313C1232.39 109.306 1233.08 109.41 1233.68 109.487C1234.95 109.649 1236.21 109.758 1237.69 109.169C1240.29 108.126 1243.34 107.702 1246.49 107.444C1249.71 107.181 1252.9 107.097 1256.17 106.752C1262.45 106.089 1266.17 105.881 1268.6 105.769C1271.07 105.655 1272.05 105.64 1273.04 105.395C1274.14 105.118 1275.25 104.842 1276.35 104.566C1277.45 104.29 1278.56 104.014 1279.66 103.737C1280.75 103.467 1281.8 103.104 1283.02 102.716C1284.21 102.333 1285.53 101.941 1287.04 101.653C1289.6 101.165 1292.01 101.504 1294.39 102.542C1295.55 103.046 1296.68 103.613 1297.84 104.17C1299.02 104.732 1300.25 105.299 1301.67 105.838C1304.19 106.801 1306.7 108.009 1309.72 108.407C1311.68 108.664 1314.01 108.768 1316.13 108.746C1318.27 108.724 1320.12 108.575 1321.12 108.356C1322.26 108.107 1323.43 107.978 1324.49 107.827C1325.59 107.673 1326.63 107.492 1327.64 107.146L1327.65 107.142L1327.66 107.138C1328.81 106.777 1329.98 106.486 1331.55 106.271L1331.58 106.267L1331.62 106.264C1332.54 106.196 1333.81 106.192 1335.08 106.192C1335.27 105.966 1335.55 105.822 1335.86 105.822C1338.05 105.822 1340.99 105.776 1343.5 105.64C1344.76 105.572 1345.9 105.482 1346.79 105.366C1347.23 105.308 1347.59 105.246 1347.86 105.182C1347.99 105.151 1348.08 105.123 1348.14 105.103C1348.15 105.071 1348.15 105.028 1348.15 104.976C1348.14 104.722 1348.06 104.408 1347.97 104.172C1347.89 103.998 1347.78 103.844 1347.59 103.618C1347.44 103.443 1347.12 103.096 1346.95 102.685C1346.55 101.72 1346.8 100.808 1347.25 100.075C1347.68 99.3695 1348.34 98.7245 1349.01 98.1564C1349.66 97.5925 1350.44 97.0004 1351.07 96.4904C1351.74 95.949 1352.28 95.471 1352.62 95.0363C1352.99 94.574 1353.29 94.0432 1353.62 93.4162C1353.94 92.8094 1354.3 92.0835 1354.72 91.3546C1355.61 89.8492 1356.85 88.2336 1359.11 86.7003C1362.1 84.6771 1365.4 81.4039 1367.38 78.797C1368.62 77.1709 1369.37 75.0929 1369.97 72.839C1370.27 71.7145 1370.52 70.5806 1370.79 69.4464C1371.05 68.3241 1371.33 67.2048 1371.66 66.1642C1372.35 64.0133 1374.14 62.9056 1375.92 62.2726C1377.68 61.65 1379.72 61.3986 1381.11 61.1378C1382.1 60.9509 1383.05 61.2089 1383.76 61.4308C1384.15 61.5551 1384.43 61.6547 1384.74 61.7423C1385.03 61.8254 1385.23 61.8598 1385.37 61.8605C1385.62 61.8616 1385.75 61.8081 1385.83 61.7599C1385.91 61.7107 1386 61.6253 1386.09 61.463C1386.28 61.0972 1386.4 60.4991 1386.45 59.6476C1386.48 59.2387 1386.49 58.8057 1386.49 58.3517C1386.5 57.9049 1386.51 57.4333 1386.53 56.9777C1386.58 56.0953 1386.68 55.1141 1387.04 54.3224C1387.41 53.5215 1388 52.8904 1388.68 52.4308C1390.46 51.2315 1393.08 50.4472 1395.45 49.6554C1397.93 48.8273 1400.2 47.9748 1401.7 46.6857C1402.29 46.1768 1402.77 45.4028 1403.14 44.3703C1403.52 43.3404 1403.78 42.1123 1403.95 40.7648C1404.1 39.617 1404.65 38.7423 1405.48 38.1222C1406.27 37.5292 1407.27 37.2022 1408.3 37.0079C1410.33 36.625 1412.94 36.6905 1415.25 36.6437C1417.56 36.5971 1420.05 36.9067 1423.26 37.2482C1426.5 37.5922 1430.57 37.9814 1436.15 38.1232C1441.2 38.2513 1445.23 34.641 1447.29 32.6769C1448.6 31.4296 1450.28 31.2122 1451.72 31.3517C1453.17 31.4913 1454.53 31.9965 1455.4 32.38C1457.03 33.0983 1457.27 34.8259 1457.35 35.964C1457.37 36.275 1457.39 36.5916 1457.4 36.8781C1457.42 37.1719 1457.43 37.4395 1457.46 37.6876C1457.51 38.212 1457.59 38.5123 1457.7 38.674C1457.82 38.8758 1458.09 39.127 1458.58 39.3966C1459.06 39.6622 1459.7 39.911 1460.48 40.1398C1462.04 40.5977 1464.07 40.9409 1466.32 41.2238C1468.57 41.5059 1471 41.7228 1473.38 41.9396C1475.76 42.1554 1478.08 42.3719 1480.07 42.6515C1483.95 43.1957 1488.17 44.491 1503.49 45.2306C1504.27 45.2683 1504.9 45.3624 1505.4 45.5177C1505.9 45.672 1506.34 45.912 1506.65 46.296C1507.33 47.1315 1506.96 48.0951 1506.84 48.4191C1506.67 48.8747 1506.55 49.1347 1506.44 49.4718C1506.33 49.7781 1506.33 49.9111 1506.33 49.9484C1506.34 49.9592 1506.36 49.9841 1506.4 50.0216C1506.5 50.0985 1506.67 50.1872 1506.91 50.257C1507.46 50.4179 1508.24 50.4949 1509.24 50.505C1510.23 50.515 1511.35 50.4608 1512.58 50.3937C1514.99 50.2614 1517.79 50.0769 1520.29 50.3156C1525.11 50.7741 1531.75 51.5225 1536.82 52.4503C1538.85 52.8226 1540.82 53.5444 1542.68 54.2902C1544.57 55.0489 1546.31 55.8157 1548.03 56.3605C1552.5 57.7848 1555.51 60.0113 1563.26 60.2902C1566.67 60.4125 1569.25 57.6872 1571.31 54.8869C1572.44 53.3496 1573.91 52.6493 1575.16 52.299C1575.74 52.1361 1576.28 52.0467 1576.72 51.9845C1576.54 51.7465 1576.34 51.4579 1576.16 51.1788C1575.95 50.8423 1575.69 50.3614 1575.65 49.8361C1575.56 48.8424 1575.98 48.0142 1576.58 47.3693C1577.16 46.7427 1577.96 46.2421 1578.79 45.8302C1580.45 45.0081 1582.56 44.3956 1584.19 43.8947C1586.73 43.1099 1588.89 43.3967 1590.76 43.9855C1591.68 44.2754 1592.54 44.6411 1593.32 44.9747C1594.11 45.3157 1594.82 45.6177 1595.5 45.8292C1596.78 46.2271 1598.09 45.9494 1599.38 45.5079C1599.69 45.3991 1600 45.284 1600.3 45.1701C1600.59 45.0584 1600.89 44.944 1601.17 44.8488C1601.45 44.7541 1601.74 44.6665 1602.03 44.6144C1602.31 44.5634 1602.64 44.5334 1602.98 44.6056C1603.6 44.7374 1604.03 45.1225 1604.32 45.5441C1604.6 45.9478 1604.77 46.4248 1604.89 46.8654C1605.01 47.3137 1605.1 47.798 1605.18 48.2453C1605.24 48.5959 1605.3 48.921 1605.36 49.2267C1605.56 49.216 1605.84 49.1661 1606.18 49.0646C1607.99 48.5276 1609.25 47.6741 1611.2 46.6945C1613.1 45.7376 1615.42 44.8092 1619.04 44.3283C1619.07 44.1854 1619.07 43.9148 1619 43.4796C1618.92 43.0218 1618.79 42.5355 1618.66 42.0167C1618.54 41.5536 1618.41 40.9846 1618.41 40.5187C1618.41 39.4862 1618.92 38.7069 1619.63 38.1749C1620.31 37.6707 1621.18 37.3694 1622.05 37.1788C1623.79 36.7957 1625.88 36.7846 1627.37 36.8292C1627.91 36.8451 1628.48 36.6684 1629.14 36.3624C1629.47 36.2104 1629.79 36.04 1630.14 35.8595C1630.47 35.6846 1630.84 35.4985 1631.2 35.3439C1632.04 34.9841 1632.57 34.1853 1633.39 32.9122C1634.15 31.7224 1635.1 30.23 1636.8 29.216C1638.27 28.349 1639.72 28.0717 1640.89 27.9103C1641.52 27.825 1641.97 27.7818 1642.42 27.7052C1642.86 27.6313 1643.12 27.5485 1643.29 27.4533C1644.44 26.7971 1645.03 25.6713 1645.7 24.1007C1646.35 22.6039 1647.07 20.7095 1648.63 19.2013C1649.69 18.1795 1650.86 17.0281 1652.71 16.7951C1654.56 16.5617 1656.02 17.2522 1657.1 18.1007C1658.15 18.9237 1658.92 19.9687 1659.33 20.465C1659.62 20.8093 1660.09 21.0964 1660.79 21.299C1661.49 21.5009 1662.35 21.5993 1663.32 21.6173C1665.27 21.6535 1667.46 21.3695 1669.33 21.1369C1671.02 20.9285 1672.66 21.276 1674.22 21.8322C1675.77 22.3854 1677.31 23.1769 1678.77 23.9064C1682.15 25.598 1683.64 28.3232 1684.09 29.8497C1684.1 29.8671 1684.15 29.9099 1684.27 29.966C1684.49 30.0677 1684.79 30.1436 1685.1 30.1847C1687.82 30.5387 1691.15 29.8403 1694.16 28.7218C1697.17 27.5995 1699.66 26.129 1700.72 25.1105C1700.95 24.8951 1701.12 24.6427 1701.36 24.296C1701.57 23.9954 1701.88 23.5528 1702.33 23.2472C1703.08 22.7362 1704.07 22.4075 1705.15 22.2003C1706.24 21.9907 1707.49 21.8925 1708.82 21.8878C1711.49 21.8786 1714.57 22.242 1717.51 22.8986C1723.88 24.3218 1728.72 25.6491 1732.47 25.7482C1733.59 25.7774 1734.38 25.0911 1735.32 23.5919C1735.78 22.8456 1736.21 22.0229 1736.73 21.0988C1737.23 20.2014 1737.8 19.2507 1738.49 18.3781C1741.25 14.9216 1744.4 13.4183 1747.32 12.6076C1748.76 12.2072 1750.15 11.974 1751.36 11.7599C1752.6 11.5407 1753.62 11.3461 1754.45 11.0353C1755.9 10.4886 1757.28 9.61046 1759.58 8.18959C1761.85 6.78499 1764.92 4.92006 1769.65 2.50502C1773.88 0.347496 1777.44 0.711877 1782.07 0.441543C1783.15 0.378773 1783.94 0.166026 1790.38 0.0714261ZM591.146 78.7433C591.159 79.023 591.179 79.2286 591.204 79.3712C591.421 79.4424 591.577 79.4604 591.672 79.4591C591.611 79.2962 591.48 79.09 591.244 78.7892C591.214 78.7502 591.179 78.7066 591.143 78.6613C591.144 78.6885 591.144 78.7166 591.146 78.7433Z"
    fill="currentColor" />
</svg>